<?xml version="1.0" encoding="UTF-8" standalone="no"?><!DOCTYPE svg PUBLIC "-//W3C//DTD SVG 1.1//EN" "http://www.w3.org/Graphics/SVG/1.1/DTD/svg11.dtd"><svg width="100%" height="100%" viewBox="0 0 58 58" version="1.1" xmlns="http://www.w3.org/2000/svg" xmlns:xlink="http://www.w3.org/1999/xlink" xml:space="preserve" xmlns:serif="http://www.serif.com/" style="fill-rule:evenodd;clip-rule:evenodd;stroke-linejoin:round;stroke-miterlimit:2;"><rect id="brightness_high" x="0.159" y="0.159" width="57.6" height="57.6" style="fill:none;"/><path d="M29.16,38.957l0.158,0.006c1.051,0.079 1.997,0.926 2.169,1.959l0.229,1.369c0.244,1.467 0.245,3.86 -0,5.333l-0.229,1.369c-0.179,1.079 -1.222,1.964 -2.327,1.964c-1.112,0 -2.147,-0.879 -2.327,-1.964l-0.229,-1.369c-0.244,-1.467 -0.245,-3.861 0,-5.333l0.229,-1.369c0.179,-1.079 1.222,-1.965 2.327,-1.965Zm7.206,-3.053c0.8,-0.672 2.054,-0.736 2.899,-0.132l1.129,0.807c1.21,0.864 2.904,2.556 3.771,3.771l0.807,1.129c0.636,0.891 0.524,2.254 -0.257,3.035c-0.786,0.787 -2.139,0.896 -3.035,0.257l-1.129,-0.807c-1.21,-0.864 -2.903,-2.556 -3.771,-3.771l-0.806,-1.129c-0.636,-0.891 -0.525,-2.254 0.256,-3.035l0.136,-0.125Zm-17.311,-0.132c0.89,-0.636 2.254,-0.524 3.035,0.257l0.125,0.136c0.671,0.799 0.735,2.053 0.131,2.899l-0.806,1.129c-0.865,1.21 -2.556,2.903 -3.771,3.771l-1.13,0.807c-0.89,0.636 -2.253,0.524 -3.034,-0.257c-0.787,-0.786 -0.896,-2.14 -0.257,-3.035l0.807,-1.129c0.864,-1.21 2.556,-2.903 3.771,-3.771l1.129,-0.807Zm10.105,-13.812c3.866,0 7,3.134 7,7c-0,3.866 -3.134,7 -7,7c-3.866,0 -7,-3.134 -7,-7c-0,-3.866 3.134,-7 7,-7Zm13.332,4.443c1.467,-0.244 3.86,-0.245 5.333,0l1.369,0.228c1.079,0.18 1.965,1.223 1.965,2.328c-0,1.112 -0.88,2.146 -1.965,2.327l-1.369,0.228c-1.467,0.245 -3.86,0.246 -5.333,0l-1.369,-0.228c-1.079,-0.18 -1.964,-1.223 -1.964,-2.327l0.006,-0.159c0.078,-1.05 0.925,-1.997 1.958,-2.169l1.369,-0.228Zm-31.997,0c1.467,-0.244 3.86,-0.245 5.333,0l1.369,0.228c1.079,0.18 1.964,1.223 1.964,2.328l-0.006,0.158c-0.078,1.051 -0.925,1.997 -1.958,2.169l-1.369,0.228c-1.467,0.245 -3.861,0.246 -5.333,0l-1.369,-0.228c-1.079,-0.18 -1.965,-1.223 -1.965,-2.327c0,-1.113 0.88,-2.147 1.965,-2.328l1.369,-0.228Zm3.11,-13c0.786,-0.786 2.139,-0.896 3.034,-0.256l1.13,0.806c1.21,0.865 2.903,2.557 3.771,3.771l0.806,1.13c0.636,0.89 0.525,2.254 -0.256,3.035l-0.136,0.124c-0.8,0.672 -2.054,0.736 -2.899,0.132l-1.129,-0.806c-1.21,-0.865 -2.904,-2.557 -3.771,-3.772l-0.807,-1.129c-0.636,-0.89 -0.524,-2.254 0.257,-3.035Zm28.075,-0.256c0.891,-0.636 2.254,-0.525 3.035,0.256c0.787,0.787 0.896,2.14 0.257,3.035l-0.807,1.129c-0.864,1.211 -2.556,2.904 -3.771,3.772l-1.129,0.806c-0.89,0.636 -2.254,0.525 -3.035,-0.256l-0.125,-0.137c-0.671,-0.799 -0.735,-2.053 -0.131,-2.898l0.806,-1.13c0.864,-1.21 2.556,-2.903 3.771,-3.771l1.129,-0.806Zm-12.52,-6.187c1.112,0 2.147,0.88 2.327,1.965l0.229,1.368c0.244,1.467 0.245,3.861 -0,5.334l-0.229,1.368c-0.179,1.08 -1.222,1.965 -2.327,1.965l-0.158,-0.006c-1.051,-0.078 -1.997,-0.925 -2.169,-1.959l-0.229,-1.368c-0.244,-1.467 -0.245,-3.861 0,-5.334l0.229,-1.368c0.179,-1.08 1.222,-1.965 2.327,-1.965Z" style="fill:#fff;"/></svg>