<?xml version="1.0" encoding="UTF-8" standalone="no"?><!DOCTYPE svg PUBLIC "-//W3C//DTD SVG 1.1//EN" "http://www.w3.org/Graphics/SVG/1.1/DTD/svg11.dtd"><svg width="100%" height="100%" viewBox="0 0 58 58" version="1.1" xmlns="http://www.w3.org/2000/svg" xmlns:xlink="http://www.w3.org/1999/xlink" xml:space="preserve" xmlns:serif="http://www.serif.com/" style="fill-rule:evenodd;clip-rule:evenodd;stroke-linejoin:round;stroke-miterlimit:2;"><rect id="bucket" x="0" y="-0" width="57.6" height="57.6" style="fill:none;"/><path d="M15.661,24.789c-0.006,0.01 -0.663,-4.496 -0.663,-4.496c-0.59,-4.757 -1.077,-8.497 -1.077,-8.886c-0,-3.63 8.714,-6.573 19.464,-6.573c10.751,-0 19.465,2.943 19.465,6.573c0,0.479 -0.967,8.01 -1.925,15.344c-0.937,7.179 -1.864,14.168 -1.864,14.168c-0.866,6.57 -6.932,11.915 -13.544,11.915l-3.998,-0c-4.846,-0 -9.413,-2.864 -11.87,-6.986c1.124,-1.551 2.927,-4.027 4.829,-6.588c2.255,-3.034 4.201,-6.387 5.549,-8.903c0.808,0.936 1.991,1.527 3.309,1.527c2.437,-0 4.413,-2.019 4.413,-4.509c-0,-2.49 -1.976,-4.508 -4.413,-4.508c-1.761,-0 -3.282,1.055 -3.989,2.58l-9.666,15.108c-5.249,6.835 -10.52,10.694 -13.188,9.146c-3.576,-2.075 -1.119,-13.08 5.488,-24.58c0.129,-0.225 0.26,-0.45 0.39,-0.672l0.742,4.841c-3.924,7.551 -5.552,14.09 -3.629,15.205c1.467,0.851 4.621,-1.676 8.054,-6.116c-0.22,-1.576 -0.525,-3.771 -0.865,-6.234l-0.369,-2.67c-0.211,-1.535 -0.429,-3.121 -0.643,-4.686Zm1.152,-12.441c0,2.49 7.365,4.508 16.45,4.508c9.084,-0 16.449,-2.018 16.449,-4.508c0,-2.49 -7.365,-4.508 -16.449,-4.508c-9.085,-0 -16.45,2.018 -16.45,4.508Z" style="fill:#fff;"/></svg>