<?xml version="1.0" encoding="UTF-8" standalone="no"?><!DOCTYPE svg PUBLIC "-//W3C//DTD SVG 1.1//EN" "http://www.w3.org/Graphics/SVG/1.1/DTD/svg11.dtd"><svg width="100%" height="100%" viewBox="0 0 58 58" version="1.1" xmlns="http://www.w3.org/2000/svg" xmlns:xlink="http://www.w3.org/1999/xlink" xml:space="preserve" xmlns:serif="http://www.serif.com/" style="fill-rule:evenodd;clip-rule:evenodd;stroke-linejoin:round;stroke-miterlimit:2;"><rect id="calendar_error" x="-0" y="0" width="57.6" height="57.6" style="fill:none;"/><path d="M42.8,10.8l5.674,1.232c0.943,0.106 2.007,0.813 2.532,1.646l0.085,0.146l0.11,0.299c0.836,2.43 0.801,5.939 -0.132,8.183l-0.183,0.439l0.611,6.895c0.465,5.249 -0.848,13.437 -2.934,18.288l-0.124,0.287c-0.524,1.219 -2.004,2.44 -3.309,2.737l-2.367,0.538c-7.818,1.777 -20.497,1.742 -28.312,-0.079l-1.911,-0.446c-1.305,-0.304 -2.785,-1.535 -3.308,-2.75l-0.123,-0.287c-2.085,-4.85 -3.4,-13.039 -2.934,-18.288l0.611,-6.895l-0.179,-0.398c-1.044,-2.316 -1.073,-6 -0.1,-8.414l0.035,-0.082l0.013,-0.024c0.493,-0.893 1.638,-1.677 2.643,-1.786l5.602,-1.241c0,0 -0.5,7.5 4,7.5c4.5,0 4.046,-7.362 4.046,-7.362c2.231,-0.091 9.73,-0.094 12.017,-0.003c-0,0 -1.063,7.365 3.937,7.365c5,0 4,-7.5 4,-7.5Zm2.822,13l-5.061,0.322c-6.527,0.416 -17.107,0.416 -23.636,0l-4.867,-0.31c-0.457,0.349 -0.769,0.873 -0.821,1.48c-0,0 -0.728,7.415 -0.305,10.907c0.281,2.319 1.255,6.498 1.357,6.931l0.009,0.037c0.359,1.608 1.997,3.191 3.653,3.546c7.041,1.513 18.525,1.439 25.598,-0.175c1.644,-0.375 3.299,-1.972 3.687,-3.565c0,0 1.026,-3.92 1.452,-7.11c0.358,-2.68 -0.254,-10.569 -0.254,-10.569c-0.042,-0.613 -0.352,-1.144 -0.812,-1.494Zm-10.59,5.697c0.983,0.983 0.979,2.557 0.005,3.531c-0.526,0.733 -1.608,1.975 -1.608,1.975c-0.358,0.419 -0.354,1.089 0.013,1.506c0,0 1.059,1.172 1.666,1.992c0.966,0.966 0.972,2.555 -0.005,3.531c-0.983,0.983 -2.557,0.979 -3.531,0.005c-0.733,-0.526 -1.975,-1.608 -1.975,-1.608c-0.419,-0.358 -1.089,-0.354 -1.506,0.013c-0,0 -1.172,1.059 -1.992,1.666c-0.966,0.966 -2.555,0.972 -3.531,-0.005c-0.983,-0.983 -0.978,-2.557 -0.005,-3.531c0.526,-0.733 1.608,-1.975 1.608,-1.975c0.358,-0.419 0.354,-1.089 -0.013,-1.506c-0,0 -1.059,-1.172 -1.666,-1.992c-0.966,-0.966 -0.972,-2.555 0.005,-3.531c0.983,-0.983 2.557,-0.979 3.531,-0.005c0.733,0.526 1.975,1.608 1.975,1.608c0.419,0.358 1.089,0.354 1.506,-0.013c0,0 1.172,-1.059 1.992,-1.666c0.966,-0.966 2.555,-0.972 3.531,0.005Zm-16.232,-24.697c2.284,-0.012 2.975,2.974 3,6c0.025,3.026 -0.548,5.957 -3,6c-2.452,0.043 -2.975,-2.991 -3,-6c-0.025,-3.009 0.717,-5.988 3,-6Zm20,0c2.284,-0.012 2.975,2.974 3,6c0.025,3.026 -0.548,5.957 -3,6c-2.452,0.043 -2.975,-2.991 -3,-6c-0.025,-3.009 0.717,-5.988 3,-6Z" style="fill:#fff;"/></svg>