<?xml version="1.0" encoding="UTF-8" standalone="no"?><!DOCTYPE svg PUBLIC "-//W3C//DTD SVG 1.1//EN" "http://www.w3.org/Graphics/SVG/1.1/DTD/svg11.dtd"><svg width="100%" height="100%" viewBox="0 0 58 58" version="1.1" xmlns="http://www.w3.org/2000/svg" xmlns:xlink="http://www.w3.org/1999/xlink" xml:space="preserve" xmlns:serif="http://www.serif.com/" style="fill-rule:evenodd;clip-rule:evenodd;stroke-linejoin:round;stroke-miterlimit:2;"><rect id="calendar" x="-0" y="0" width="57.6" height="57.6" style="fill:none;"/><path d="M42.8,10.8l5.674,1.232c0.943,0.106 2.007,0.813 2.532,1.646l0.085,0.146l0.11,0.299c0.836,2.43 0.801,5.939 -0.132,8.183l-0.183,0.439l0.611,6.895c0.465,5.249 -0.848,13.437 -2.934,18.288l-0.124,0.287c-0.524,1.219 -2.004,2.44 -3.309,2.737l-2.367,0.538c-7.818,1.777 -20.497,1.742 -28.312,-0.079l-1.911,-0.446c-1.305,-0.304 -2.785,-1.535 -3.308,-2.75l-0.123,-0.287c-2.085,-4.85 -3.4,-13.039 -2.934,-18.288l0.611,-6.895l-0.179,-0.398c-1.044,-2.316 -1.073,-6 -0.1,-8.414l0.035,-0.082l0.013,-0.024c0.493,-0.893 1.638,-1.677 2.643,-1.786l5.602,-1.241c0,0 -0.5,7.5 4,7.5c4.5,0 4.046,-7.362 4.046,-7.362c2.231,-0.091 9.73,-0.094 12.017,-0.003c-0,0 -1.063,7.365 3.937,7.365c5,0 4,-7.5 4,-7.5Zm2.822,13l-5.061,0.322c-6.527,0.416 -17.107,0.416 -23.636,0l-4.867,-0.31c-0.457,0.349 -0.769,0.873 -0.822,1.48c0,0 -0.727,7.415 -0.304,10.907c0.281,2.319 1.255,6.498 1.357,6.931l0.009,0.037c0.359,1.608 1.997,3.191 3.653,3.546c7.041,1.513 18.525,1.439 25.598,-0.175c1.644,-0.375 3.299,-1.972 3.687,-3.565c0,0 1.026,-3.92 1.452,-7.11c0.358,-2.68 -0.254,-10.569 -0.254,-10.569c-0.042,-0.613 -0.352,-1.144 -0.812,-1.494Zm-20.65,6c0.569,0 1.123,0.07 1.661,0.209c0.538,0.14 1.019,0.354 1.443,0.645c0.423,0.29 0.765,0.653 1.025,1.089c0.26,0.436 0.39,0.95 0.39,1.542c0,0.686 -0.202,1.264 -0.608,1.734c-0.405,0.471 -0.922,0.787 -1.551,0.95l-0,0.052c0.363,0.082 0.695,0.212 0.998,0.392c0.302,0.18 0.563,0.395 0.78,0.645c0.218,0.25 0.388,0.529 0.509,0.837c0.121,0.307 0.181,0.636 0.181,0.984c0,0.674 -0.142,1.258 -0.426,1.751c-0.285,0.494 -0.657,0.901 -1.117,1.22c-0.459,0.32 -0.977,0.558 -1.551,0.715c-0.575,0.157 -1.159,0.235 -1.752,0.235c-0.58,0 -1.146,-0.064 -1.697,-0.192c-0.55,-0.127 -1.052,-0.322 -1.506,-0.583c-0.454,-0.262 -0.85,-0.599 -1.189,-1.011c-0.339,-0.413 -0.593,-0.909 -0.762,-1.49l2.831,-0.715c0.121,0.407 0.369,0.764 0.744,1.072c0.375,0.308 0.853,0.462 1.434,0.462c0.218,0 0.439,-0.029 0.663,-0.087c0.223,-0.058 0.423,-0.148 0.598,-0.27c0.176,-0.122 0.321,-0.282 0.436,-0.48c0.115,-0.197 0.172,-0.441 0.172,-0.731c0,-0.314 -0.075,-0.576 -0.226,-0.785c-0.152,-0.209 -0.351,-0.374 -0.599,-0.496c-0.248,-0.122 -0.53,-0.209 -0.844,-0.262c-0.315,-0.052 -0.629,-0.078 -0.944,-0.078l-0.817,0l0,-2.144l0.89,0c0.29,0 0.568,-0.02 0.834,-0.061c0.267,-0.04 0.506,-0.116 0.717,-0.226c0.212,-0.11 0.381,-0.259 0.508,-0.444c0.128,-0.186 0.191,-0.43 0.191,-0.732c0,-0.442 -0.163,-0.779 -0.49,-1.011c-0.327,-0.232 -0.702,-0.349 -1.125,-0.349c-0.436,0 -0.814,0.125 -1.135,0.375c-0.32,0.25 -0.529,0.584 -0.626,1.002l-2.831,-0.627c0.157,-0.523 0.393,-0.979 0.708,-1.368c0.315,-0.389 0.687,-0.715 1.116,-0.976c0.43,-0.261 0.898,-0.459 1.407,-0.593c0.508,-0.133 1.028,-0.2 1.56,-0.2Zm11.828,0l0,13l-2.529,0l-0,-9.5l-2.132,1.836l-1.339,-2.172l3.471,-3.164l2.529,0Zm-18,-25c2.284,-0.012 2.975,2.974 3,6c0.025,3.026 -0.548,5.957 -3,6c-2.452,0.043 -2.975,-2.991 -3,-6c-0.025,-3.009 0.716,-5.988 3,-6Zm20,0c2.284,-0.012 2.975,2.974 3,6c0.025,3.026 -0.548,5.957 -3,6c-2.452,0.043 -2.975,-2.991 -3,-6c-0.025,-3.009 0.716,-5.988 3,-6Z" style="fill:#fff;"/></svg>