<?xml version="1.0" encoding="UTF-8" standalone="no"?><!DOCTYPE svg PUBLIC "-//W3C//DTD SVG 1.1//EN" "http://www.w3.org/Graphics/SVG/1.1/DTD/svg11.dtd"><svg width="100%" height="100%" viewBox="0 0 58 58" version="1.1" xmlns="http://www.w3.org/2000/svg" xmlns:xlink="http://www.w3.org/1999/xlink" xml:space="preserve" xmlns:serif="http://www.serif.com/" style="fill-rule:evenodd;clip-rule:evenodd;stroke-linejoin:round;stroke-miterlimit:2;"><rect id="call_hangup" x="0.145" y="0.027" width="57.6" height="57.6" style="fill:none;"/><path d="M26.287,7.744l-3.715,-1.836c-3.388,-1.674 -7.808,-0.506 -9.871,2.607l-1.932,1.02c-2.135,0.948 -4.631,3.441 -5.582,5.583l0.285,-0.641c-0.381,0.856 -0.297,2.216 0.179,3.027l-0.401,-0.683c1.914,3.257 6.111,7.452 9.363,9.364l1.704,0.063c1.068,-0.474 2.227,-1.335 3.237,-2.346l1.72,-1.828c0.358,-0.807 0.443,-1.909 0.277,-2.919c0.072,-0.099 0.153,-0.188 0.242,-0.266c0.461,-0.407 1.877,-0.208 1.877,-0.208c1.728,0.751 3.537,1.862 5.301,3.206l-19.391,19.391c-1.321,1.321 -1.318,3.466 0,4.785c1.322,1.321 3.467,1.318 4.785,0l35.38,-35.38c1.321,-1.321 1.318,-3.466 -0,-4.785c-1.322,-1.321 -3.467,-1.318 -4.785,0l-8.703,8.703c-3.31,-2.858 -6.762,-5.273 -9.97,-6.857Zm24.064,24.064l1.836,3.715c1.67,3.381 0.506,7.807 -2.608,9.87c-0,-0 -1.338,2.652 -1.644,3.341c-0,0 -2.822,3.227 -4.957,4.174l0.641,-0.284c-0.856,0.38 -2.212,0.3 -3.028,-0.18l0.683,0.402c-3.253,-1.912 -7.449,-6.107 -9.363,-9.364l-0.063,-1.703c0.475,-1.071 1.336,-2.229 2.297,-3.286l1.877,-1.672c0.807,-0.358 1.909,-0.442 2.919,-0.277c0.099,-0.071 0.188,-0.152 0.267,-0.241c0.408,-0.462 0.207,-1.877 0.207,-1.877c-0.736,-1.692 -1.816,-3.462 -3.123,-5.191l7.293,-7.292c2.817,3.277 5.198,6.69 6.766,9.865Z" style="fill:#fff;"/></svg>