<?xml version="1.0" encoding="UTF-8" standalone="no"?><!DOCTYPE svg PUBLIC "-//W3C//DTD SVG 1.1//EN" "http://www.w3.org/Graphics/SVG/1.1/DTD/svg11.dtd"><svg width="100%" height="100%" viewBox="0 0 58 58" version="1.1" xmlns="http://www.w3.org/2000/svg" xmlns:xlink="http://www.w3.org/1999/xlink" xml:space="preserve" xmlns:serif="http://www.serif.com/" style="fill-rule:evenodd;clip-rule:evenodd;stroke-linejoin:round;stroke-miterlimit:2;"><rect id="cart_add" x="0.211" y="0.14" width="57.6" height="57.6" style="fill:none;"/><path d="M20.951,43.692c2.303,-0 4.17,1.867 4.17,4.171c0,2.303 -1.867,4.17 -4.17,4.17c-2.304,0 -4.171,-1.867 -4.171,-4.17c-0,-2.304 1.867,-4.171 4.171,-4.171Zm15.849,-0c2.303,-0 4.171,1.867 4.171,4.171c-0,2.303 -1.868,4.17 -4.171,4.17c-2.304,0 -4.171,-1.867 -4.171,-4.17c-0,-2.304 1.867,-4.171 4.171,-4.171Zm-23.842,-37.492c2.305,0.036 3.964,1.927 3.702,4.214c-0,-0 -0.094,1.816 -0.499,3.657c2.794,0.153 9.812,0.504 15.747,0.504c5.465,-0 16.414,-0.595 16.414,-0.595c3.214,-0.158 5.305,2.27 4.664,5.43l-0.892,4.402c-0.547,2.698 -1.927,6.937 -3.079,9.452l-0.779,1.702c-1.307,2.853 -4.822,5.636 -7.938,6.31l-0.165,0.033l-0.375,0.065c-5.017,0.83 -12.748,0.934 -17.594,0.217l-3.108,-0.46c-3.119,-0.462 -6.056,-3.308 -6.652,-6.413l-0.037,-0.212c-1.312,-6.046 -1.805,-16.288 -1.633,-21.603l0.012,-0.369l0.001,-0.002c0.283,-1.357 -0.551,-2.37 -1.922,-2.288c0,-0 -0.796,0.188 -1.876,-0.148c-1.08,-0.336 -1.847,-1.019 -1.847,-2.219c-0,-1.208 0.916,-1.387 1.847,-1.602c0.931,-0.216 6.009,-0.075 6.009,-0.075Zm17.126,16.751c-1.151,0 -2.085,0.94 -2.085,2.081c-0.125,0.841 -0.192,2.157 -0.192,2.157c-0.03,0.463 -0.423,0.861 -0.881,0.896c-0,-0 -1.37,0.094 -2.113,0.217c-1.149,-0 -2.081,0.925 -2.081,2.085c0,1.152 0.941,2.085 2.081,2.085c0.841,0.126 2.157,0.193 2.157,0.193c0.463,0.029 0.86,0.423 0.896,0.881c0,-0 0.094,1.37 0.217,2.113c-0,1.148 0.926,2.08 2.085,2.08c1.152,0 2.086,-0.94 2.086,-2.08c0.125,-0.842 0.192,-2.157 0.192,-2.157c0.029,-0.463 0.423,-0.861 0.881,-0.896c0,-0 1.37,-0.094 2.113,-0.217c1.149,-0 2.08,-0.926 2.08,-2.085c0,-1.152 -0.94,-2.086 -2.08,-2.086c-0.841,-0.126 -2.157,-0.193 -2.157,-0.193c-0.463,-0.029 -0.861,-0.422 -0.896,-0.88c-0,-0 -0.095,-1.371 -0.217,-2.113c-0,-1.149 -0.926,-2.081 -2.086,-2.081Zm17.977,-5.952c-0,-0 -8.021,1.668 -15.802,1.668c-7.781,-0 -14.645,-1.668 -14.645,-1.668c0,-0 7.085,4.17 14.645,4.17c7.561,0 15.802,-4.17 15.802,-4.17Z" style="fill:#fff;"/></svg>