<?xml version="1.0" encoding="UTF-8" standalone="no"?><!DOCTYPE svg PUBLIC "-//W3C//DTD SVG 1.1//EN" "http://www.w3.org/Graphics/SVG/1.1/DTD/svg11.dtd"><svg width="100%" height="100%" viewBox="0 0 58 58" version="1.1" xmlns="http://www.w3.org/2000/svg" xmlns:xlink="http://www.w3.org/1999/xlink" xml:space="preserve" xmlns:serif="http://www.serif.com/" style="fill-rule:evenodd;clip-rule:evenodd;stroke-linejoin:round;stroke-miterlimit:2;"><rect id="chat_oval_add" x="0.156" y="0.107" width="57.6" height="57.6" style="fill:none;"/><path d="M28.96,9.09c14.004,-0 25.356,8.144 25.356,18.19c0,10.046 -11.352,18.19 -25.356,18.19c-1.668,0 -3.299,-0.115 -4.878,-0.336c-5.306,4.609 -11.381,3.98 -11.381,3.98c-2.749,0.124 -3.085,-0.962 -1.009,-2.776c0,-0 5.182,-1.748 -0.406,-5.959c-0.166,-0.125 -0.306,-0.243 -0.42,-0.356c-4.492,-3.282 -7.262,-7.78 -7.262,-12.743c-0,-10.046 11.352,-18.19 25.356,-18.19Zm-0.05,10.006c-1.381,0 -2.5,1.128 -2.5,2.494c-0.151,1.009 -0.231,2.586 -0.231,2.586c-0.035,0.555 -0.507,1.032 -1.056,1.074c-0,0 -1.643,0.113 -2.533,0.26c-1.378,0 -2.494,1.11 -2.494,2.5c-0,1.381 1.127,2.5 2.494,2.5c1.009,0.151 2.586,0.231 2.586,0.231c0.555,0.035 1.032,0.507 1.074,1.056c0,0 0.113,1.643 0.26,2.533c0,1.378 1.11,2.494 2.5,2.494c1.381,0 2.5,-1.128 2.5,-2.494c0.151,-1.009 0.231,-2.586 0.231,-2.586c0.035,-0.555 0.506,-1.032 1.056,-1.074c0,-0 1.643,-0.113 2.533,-0.26c1.377,-0 2.494,-1.11 2.494,-2.5c-0,-1.381 -1.128,-2.5 -2.494,-2.5c-1.009,-0.151 -2.586,-0.231 -2.586,-0.231c-0.555,-0.035 -1.032,-0.507 -1.074,-1.056c-0,-0 -0.113,-1.643 -0.26,-2.533c-0,-1.377 -1.11,-2.494 -2.5,-2.494Z" style="fill:#fff;"/></svg>