<?xml version="1.0" encoding="UTF-8" standalone="no"?><!DOCTYPE svg PUBLIC "-//W3C//DTD SVG 1.1//EN" "http://www.w3.org/Graphics/SVG/1.1/DTD/svg11.dtd"><svg width="100%" height="100%" viewBox="0 0 58 58" version="1.1" xmlns="http://www.w3.org/2000/svg" xmlns:xlink="http://www.w3.org/1999/xlink" xml:space="preserve" xmlns:serif="http://www.serif.com/" style="fill-rule:evenodd;clip-rule:evenodd;stroke-linejoin:round;stroke-miterlimit:2;"><rect id="chat_ok" x="0.117" y="0.081" width="57.6" height="57.6" style="fill:none;"/><path d="M38.932,10.626l4.514,0.539c3.209,0.383 6.259,3.217 6.928,6.39l0.009,0.05l0.032,0.194c0.723,4.748 0.722,11.902 -0,16.643l-0.032,0.192l-0.009,0.051c-0.669,3.176 -3.718,6.007 -6.928,6.39l-2.534,0.302c-1.711,0.205 -3.698,0.356 -5.818,0.454c-6.481,0.669 -9.006,1.22 -9.757,1.666c-6.055,3.595 -10.196,4.186 -10.196,4.186c-1.077,0.241 -1.524,-0.345 -1.057,-1.342c-0,-0 2.916,-4.51 -0.894,-5.576c-2.663,-0.89 -4.977,-3.347 -5.558,-6.055l-0.017,-0.081l-0.03,-0.188c-0.723,-4.748 -0.722,-11.902 0,-16.643l0.031,-0.194l0.01,-0.049c0.669,-3.176 3.719,-6.007 6.928,-6.39l4.514,-0.539c5.48,-0.654 14.379,-0.655 19.864,-0Zm-1.472,9.105c-0.976,-0.976 -2.565,-0.971 -3.531,-0.005l-6.717,6.717c-0.393,0.393 -1.027,0.397 -1.416,0.009l-1.775,-1.776c-0.974,-0.974 -2.548,-0.978 -3.531,0.005c-0.977,0.976 -0.971,2.565 -0.005,3.531l4.252,4.251c0.486,0.486 1.122,0.731 1.768,0.727c0.639,-0.001 1.276,-0.244 1.758,-0.727l9.202,-9.201c0.973,-0.974 0.978,-2.548 -0.005,-3.531Z" style="fill:#fff;"/></svg>