<?xml version="1.0" encoding="UTF-8" standalone="no"?><!DOCTYPE svg PUBLIC "-//W3C//DTD SVG 1.1//EN" "http://www.w3.org/Graphics/SVG/1.1/DTD/svg11.dtd"><svg width="100%" height="100%" viewBox="0 0 65 60" version="1.1" xmlns="http://www.w3.org/2000/svg" xmlns:xlink="http://www.w3.org/1999/xlink" xml:space="preserve" xmlns:serif="http://www.serif.com/" style="fill-rule:evenodd;clip-rule:evenodd;stroke-linejoin:round;stroke-miterlimit:2;"><rect id="chats" x="0.107" y="0.079" width="63.747" height="58.992" style="fill:none;"/><path d="M32.638,21.277c4.108,-0.491 10.773,-0.49 14.877,-0l3.38,0.404c2.464,0.294 4.801,2.514 5.222,4.963l-0.027,-0.135l0.035,0.213c0.526,3.526 0.527,8.785 0,12.316l-0.034,0.209l-0.018,0.094c-0.429,1.942 -2.045,3.708 -3.937,4.428l-0.219,0.079c-2.854,0.798 -0.86,3.698 -0.86,3.698c0.437,1.019 -0.014,1.605 -1.091,1.352c-0,-0 -2.612,-0.312 -7.146,-3.004c-0.563,-0.334 -2.454,-0.747 -7.307,-1.248c-1.588,-0.073 -3.076,-0.186 -4.358,-0.34l-1.897,-0.226c-2.464,-0.294 -4.801,-2.514 -5.222,-4.964l0.023,0.122l-0.031,-0.2c-0.526,-3.526 -0.527,-8.784 -0,-12.315l0.031,-0.202l0.02,-0.098c0.503,-2.285 2.65,-4.326 4.955,-4.71l0.224,-0.032l3.38,-0.404Zm7.17,-10.341l4.515,0.54c3.208,0.383 6.259,3.217 6.927,6.389l0.009,0.051l0.032,0.193c0.048,0.313 0.092,0.637 0.134,0.969l-2.553,-0.303c-4.853,-0.579 -12.733,-0.58 -17.591,0l-3.997,0.478c-2.831,0.338 -5.524,2.831 -6.128,5.628l-0.014,0.066l-0.035,0.22c-0.633,4.191 -0.632,10.472 0,14.657l0.035,0.216l0.014,0.07c0.402,1.862 1.727,3.587 3.403,4.634c-5.142,2.765 -8.542,3.249 -8.542,3.249c-1.077,0.242 -1.524,-0.345 -1.057,-1.342c-0,0 2.916,-4.509 -0.894,-5.575c-2.662,-0.891 -4.977,-3.348 -5.558,-6.056l-0.017,-0.08l-0.029,-0.188c-0.724,-4.748 -0.723,-11.902 -0,-16.643l0.03,-0.194l0.011,-0.05c0.669,-3.175 3.718,-6.006 6.927,-6.389l4.514,-0.54c5.48,-0.654 14.379,-0.655 19.864,0Zm-7.138,19.931c-1.105,-0 -2,0.895 -2,2c-0,1.105 0.895,2 2,2c1.104,-0 2,-0.895 2,-2c-0,-1.105 -0.896,-2 -2,-2Zm7,-0c-1.105,-0 -2,0.895 -2,2c-0,1.105 0.895,2 2,2c1.104,-0 2,-0.895 2,-2c-0,-1.105 -0.896,-2 -2,-2Zm7,-0c-1.105,-0 -2,0.895 -2,2c-0,1.105 0.895,2 2,2c1.104,-0 2,-0.895 2,-2c-0,-1.105 -0.896,-2 -2,-2Z" style="fill:#fff;"/></svg>