<?xml version="1.0" encoding="UTF-8" standalone="no"?><!DOCTYPE svg PUBLIC "-//W3C//DTD SVG 1.1//EN" "http://www.w3.org/Graphics/SVG/1.1/DTD/svg11.dtd"><svg width="100%" height="100%" viewBox="0 0 58 58" version="1.1" xmlns="http://www.w3.org/2000/svg" xmlns:xlink="http://www.w3.org/1999/xlink" xml:space="preserve" xmlns:serif="http://www.serif.com/" style="fill-rule:evenodd;clip-rule:evenodd;stroke-linejoin:round;stroke-miterlimit:2;"><rect id="chat_remove" x="0.156" y="0.107" width="57.6" height="57.6" style="fill:none;"/><path d="M29.12,9.09c14.004,-0 25.356,8.144 25.356,18.19c0,10.046 -11.352,18.19 -25.356,18.19c-1.668,0 -3.299,-0.115 -4.878,-0.336c-5.306,4.609 -11.381,3.98 -11.381,3.98c-2.749,0.124 -3.085,-0.962 -1.009,-2.776c0,-0 5.182,-1.748 -0.406,-5.959c-0.166,-0.125 -0.306,-0.243 -0.42,-0.356c-4.492,-3.282 -7.262,-7.78 -7.262,-12.743c-0,-10.046 11.352,-18.19 25.356,-18.19Zm6.37,15.32l-12.74,0.1c-1.378,0 -2.494,1.11 -2.494,2.5c-0,1.381 1.127,2.5 2.494,2.5l12.74,-0.1c1.377,-0 2.494,-1.11 2.494,-2.5c-0,-1.381 -1.128,-2.5 -2.494,-2.5Z" style="fill:#fff;"/></svg>