<?xml version="1.0" encoding="UTF-8" standalone="no"?><!DOCTYPE svg PUBLIC "-//W3C//DTD SVG 1.1//EN" "http://www.w3.org/Graphics/SVG/1.1/DTD/svg11.dtd"><svg width="100%" height="100%" viewBox="0 0 58 58" version="1.1" xmlns="http://www.w3.org/2000/svg" xmlns:xlink="http://www.w3.org/1999/xlink" xml:space="preserve" xmlns:serif="http://www.serif.com/" style="fill-rule:evenodd;clip-rule:evenodd;stroke-linejoin:round;stroke-miterlimit:2;"><rect id="chat" x="0.117" y="0.081" width="57.6" height="57.6" style="fill:none;"/><path d="M38.972,10.626l4.514,0.539c3.209,0.383 6.259,3.217 6.928,6.39l0.009,0.05l0.032,0.194c0.723,4.748 0.722,11.902 -0,16.643l-0.031,0.187l-0.01,0.056c-0.669,3.176 -3.719,6.007 -6.928,6.39l-2.534,0.303c-1.711,0.204 -3.698,0.355 -5.818,0.453c-6.481,0.669 -9.006,1.22 -9.757,1.666c-6.055,3.595 -10.196,4.186 -10.196,4.186c-1.078,0.241 -1.524,-0.345 -1.057,-1.342c-0,-0 2.916,-4.51 -0.894,-5.576c-2.663,-0.89 -4.977,-3.347 -5.559,-6.055l-0.016,-0.086l-0.03,-0.183c-0.723,-4.748 -0.722,-11.902 0,-16.643l0.031,-0.193l0.01,-0.05c0.669,-3.176 3.719,-6.007 6.928,-6.39l4.514,-0.539c5.48,-0.654 14.379,-0.655 19.864,-0Zm-9.925,13.255c-1.792,0 -3.246,1.454 -3.246,3.247c0,1.792 1.454,3.246 3.246,3.246c1.793,-0 3.247,-1.454 3.247,-3.246c-0,-1.793 -1.454,-3.247 -3.247,-3.247Zm-10,0c-1.792,0 -3.246,1.454 -3.246,3.247c0,1.792 1.454,3.246 3.246,3.246c1.793,-0 3.247,-1.454 3.247,-3.246c-0,-1.793 -1.454,-3.247 -3.247,-3.247Zm20,0c-1.792,0 -3.246,1.454 -3.246,3.247c0,1.792 1.454,3.246 3.246,3.246c1.793,-0 3.247,-1.454 3.247,-3.246c-0,-1.793 -1.454,-3.247 -3.247,-3.247Z" style="fill:#fff;"/></svg>