<?xml version="1.0" encoding="UTF-8" standalone="no"?><!DOCTYPE svg PUBLIC "-//W3C//DTD SVG 1.1//EN" "http://www.w3.org/Graphics/SVG/1.1/DTD/svg11.dtd"><svg width="100%" height="100%" viewBox="0 0 58 58" version="1.1" xmlns="http://www.w3.org/2000/svg" xmlns:xlink="http://www.w3.org/1999/xlink" xml:space="preserve" xmlns:serif="http://www.serif.com/" style="fill-rule:evenodd;clip-rule:evenodd;stroke-linejoin:round;stroke-miterlimit:2;"><rect id="cloud" x="0.116" y="0.021" width="57.6" height="57.6" style="fill:none;"/><path d="M20.8,47c23,0.5 32,-3.5 32.228,-10.759c0.123,-3.918 -2.634,-7.222 -6.228,-8.236c0.189,-0.603 0.276,-1.25 0.241,-1.918c-0.157,-3.003 -2.719,-5.31 -5.722,-5.152c-0.979,0.051 -1.884,0.358 -2.654,0.852c-1.389,-5.987 -6.623,-10.787 -12.865,-10.787c-7.265,0 -13.159,6.379 -13.221,13.843c-4.46,1.053 -7.779,5.06 -7.779,9.842c0.5,5.815 4.005,12.054 16,12.315Z" style="fill:#fff;"/></svg>