<?xml version="1.0" encoding="UTF-8" standalone="no"?><!DOCTYPE svg PUBLIC "-//W3C//DTD SVG 1.1//EN" "http://www.w3.org/Graphics/SVG/1.1/DTD/svg11.dtd"><svg width="100%" height="100%" viewBox="0 0 58 58" version="1.1" xmlns="http://www.w3.org/2000/svg" xmlns:xlink="http://www.w3.org/1999/xlink" xml:space="preserve" xmlns:serif="http://www.serif.com/" style="fill-rule:evenodd;clip-rule:evenodd;stroke-linejoin:round;stroke-miterlimit:2;"><rect id="compass" x="0.12" y="0.12" width="57.6" height="57.6" style="fill:none;"/><path d="M29.09,5.074c13.255,-0 24,10.745 24,24c0,13.255 -10.745,24 -24,24c-13.255,-0 -24,-10.745 -24,-24c0,-13.255 10.745,-24 24,-24Zm0,5.333c-10.309,0 -18.666,8.358 -18.666,18.667c-0,10.309 8.357,18.667 18.666,18.667c10.31,-0 18.667,-8.358 18.667,-18.667c-0,-10.309 -8.357,-18.667 -18.667,-18.667Zm2.942,26.797l-1.792,6.219c-0.635,2.204 -1.666,2.199 -2.3,0l-1.159,-4.019l4.831,-2.008c0.139,-0.058 0.279,-0.122 0.42,-0.192Zm8.94,-18.427l-5.407,10.805c-1.099,2.195 -3.769,4.864 -5.964,5.963l-10.804,5.407c-1.756,0.879 -2.467,0.167 -1.589,-1.588l5.408,-10.805c1.098,-2.194 3.768,-4.865 5.963,-5.963l10.805,-5.407c1.756,-0.879 2.467,-0.167 1.588,1.588Zm-4.74,14.811l2.199,3.838c0.729,1.273 0.288,1.723 -0.993,0.993l-3.849,-2.192c0.974,-0.734 1.906,-1.665 2.643,-2.639Zm-8.527,-5.361c-1.194,-0.567 -2.588,-0.112 -3.222,1.105l-3.252,6.246c-0.813,1.561 -0.207,2.17 1.356,1.356l6.246,-3.253c1.221,-0.636 1.673,-2.028 1.105,-3.222l-0.051,-0.1l-0.108,-0.148c-0.479,-0.637 -1.189,-1.348 -1.826,-1.826l-0.15,-0.108l-0.098,-0.05Zm11.504,-0.957l4.155,0.959c2.204,0.508 2.199,1.333 0,1.841l-5.882,1.355l1.727,-4.155Zm-18.909,-0.341l-1.684,4.051l-3.95,-0.91c-2.204,-0.509 -2.199,-1.334 0,-1.841l5.634,-1.3Zm-0.56,-6.207c-0.724,-1.273 -0.282,-1.723 0.993,-0.993l3.558,2.035c-0.928,0.712 -1.812,1.597 -2.521,2.524l-2.03,-3.566Zm10.5,-5.997l1.079,3.742l-4.955,2.06c-0.037,0.015 -0.074,0.031 -0.11,0.047l1.686,-5.849c0.635,-2.204 1.667,-2.199 2.3,-0Z" style="fill:#fff;"/></svg>