<?xml version="1.0" encoding="UTF-8" standalone="no"?><!DOCTYPE svg PUBLIC "-//W3C//DTD SVG 1.1//EN" "http://www.w3.org/Graphics/SVG/1.1/DTD/svg11.dtd"><svg width="100%" height="100%" viewBox="0 0 58 58" version="1.1" xmlns="http://www.w3.org/2000/svg" xmlns:xlink="http://www.w3.org/1999/xlink" xml:space="preserve" xmlns:serif="http://www.serif.com/" style="fill-rule:evenodd;clip-rule:evenodd;stroke-linejoin:round;stroke-miterlimit:2;"><rect id="container" x="0.2" y="0.2" width="57.6" height="57.6" style="fill:none;"/><path d="M13.367,5.154c1.371,-0 2.482,1.111 2.482,2.482l-0.002,-0.039l1.75,-0.218c6.142,-0.768 15.999,-0.793 22.38,-0.072l0.606,0.072l1.749,0.218c0.02,-1.353 1.123,-2.443 2.481,-2.443l5.795,-0c1.371,-0 2.482,1.111 2.482,2.482l0,5.795c0,1.371 -1.111,2.482 -2.482,2.482l0.038,-0.002l0.22,1.75c0.151,1.209 0.273,2.563 0.367,4.005c0.601,0.335 1.03,0.999 1.03,1.699l-0,0.819c-0,0.634 -0.346,1.128 -0.854,1.329c0.068,2.393 0.068,4.888 0,7.283c0.507,0.203 0.854,0.698 0.854,1.328l-0,0.819c-0,0.704 -0.427,1.369 -1.03,1.704c-0.094,1.441 -0.216,2.792 -0.367,4l-0.219,1.749c1.353,0.02 2.443,1.123 2.443,2.481l0,5.795c0,1.371 -1.111,2.482 -2.482,2.482l-5.795,-0c-1.371,-0 -2.481,-1.111 -2.481,-2.482l0,0.038l-1.749,0.219c-6.141,0.768 -15.999,0.793 -22.379,0.072l-0.607,-0.072l-1.749,-0.218c-0.02,1.353 -1.123,2.443 -2.481,2.443l-5.795,-0c-1.371,-0 -2.482,-1.111 -2.482,-2.482l0,-5.795c0,-1.371 1.111,-2.482 2.482,-2.482l-0.039,0.001l-0.218,-1.749c-0.151,-1.209 -0.274,-2.563 -0.367,-4.005c-0.602,-0.335 -1.03,-0.999 -1.03,-1.699l-0,-0.819c-0,-0.634 0.345,-1.128 0.853,-1.329c-0.068,-2.393 -0.068,-4.888 0,-7.283c-0.507,-0.203 -0.853,-0.698 -0.853,-1.328l-0,-0.819c-0,-0.704 0.426,-1.369 1.029,-1.704c0.095,-1.441 0.217,-2.792 0.368,-4l0.219,-1.749c-1.354,-0.02 -2.444,-1.123 -2.444,-2.481l0,-5.795c0,-1.371 1.111,-2.482 2.482,-2.482l5.795,-0Zm-2.898,40.552c-0.685,-0 -1.241,0.558 -1.241,1.241l0,1.655c0,0.645 0.488,1.176 1.121,1.236l0.12,0.006c0.686,-0 1.242,-0.558 1.242,-1.242l-0,-1.655c-0,-0.686 -0.551,-1.241 -1.242,-1.241Zm37.242,-0c-0.686,-0 -1.242,0.558 -1.242,1.241l0,1.655c0,0.645 0.489,1.176 1.122,1.236l0.12,0.006c0.685,-0 1.241,-0.558 1.241,-1.242l0,-1.655c0,-0.686 -0.551,-1.241 -1.241,-1.241Zm-18.621,-18.207c-1.066,-0 -2.741,0.366 -4.029,0.695c-0.07,0.177 -0.109,0.364 -0.109,0.55l0,0.406c0,0.688 0.526,1.046 1.171,0.811c0,0 1.161,-0.467 2.14,-0.691l-0,13.948c-0,1.378 -1.108,2.443 -2.474,2.387c-0,-0 -4.029,-0.119 -6.531,-0.476l-3.42,-0.49c0.007,0.078 0.011,0.158 0.011,0.238l-0,1.419l3.409,0.488c5.249,0.75 13.657,0.774 19.111,0.075l0.553,-0.075l3.41,-0.488l-0,-1.419c-0,-0.08 0.003,-0.16 0.011,-0.238l-3.421,0.49c-2.504,0.357 -6.531,0.476 -6.531,0.476c-1.357,0.059 -2.473,-1.012 -2.473,-2.387l-0,-14.021c0.502,0.049 1.034,0.137 1.572,0.249c0.038,0.019 0.079,0.038 0.122,0.058c-0,-0 1.056,0.196 1.616,1.285c0.56,1.089 0.096,0.186 0.096,0.186l0.001,0.003l0.005,0.009l0.002,0.005l0.065,0.118c0.449,0.759 1.45,1.354 2.318,1.354l0.458,0c1.116,0 2.021,-0.898 2.021,-2.02l-0,-0.037c-0,-0.004 -0,-0.008 -0,-0.012l-0,-0.827c-0,-0.354 -0.146,-0.71 -0.379,-0.994c-1.988,-0.385 -5.94,-1.075 -8.725,-1.075Zm17.344,-11.586l-0.791,-0c-0.457,-0 -0.74,0.361 -0.63,0.808l0.616,2.503l-0.096,0.004c-0.86,0.084 -1.546,1.16 -1.546,2.475l-0,2.488c-0,1.365 0.742,2.402 1.655,2.402c-0,0 1.071,0.023 1.808,0.023l0.243,0.993c0.21,0.852 0.21,2.237 0,3.09l-0.229,0.938c-0.737,-0.001 -1.822,0.022 -1.822,0.022c-0.913,0 -1.655,1.037 -1.655,2.403l-0,2.487c-0,1.37 0.745,2.481 1.655,2.481l-0,-0l-0.629,2.557c-0.104,0.424 0.136,0.761 0.541,0.804l0.089,0.004l0.791,0c0.457,0 0.896,-0.362 0.978,-0.808l0.801,-4.363c-0.153,0.022 -0.312,0.045 -0.476,0.069c-0.757,-0.191 -2.095,-0 -2.095,-1.96c-0,-2.096 1.767,-1.868 2.427,-2.254l-0.023,0.013c0.347,-0.05 0.666,-0.096 0.951,-0.138l0.412,-2.242c0.159,-0.865 0.158,-2.256 -0,-3.116l-0.415,-2.258c-0.282,-0.042 -0.597,-0.089 -0.939,-0.139l0.04,0.021c-0.659,-0.386 -2.453,-0.204 -2.453,-2.301c-0,-2.043 1.498,-1.632 2.234,-1.865c0.116,0.017 0.23,0.033 0.34,0.049l-0.804,-4.382c-0.081,-0.44 -0.52,-0.808 -0.978,-0.808Zm-35.551,15.746c0.088,0.034 0.32,1.523 0.412,1.578c0.66,0.385 2.071,-0 2.071,2.096c0,2.097 -1.358,1.766 -2.071,2.041l0.017,0.022c-0.488,-0.068 -0.939,-0.132 -1.348,-0.191l0.805,4.382c0.082,0.446 0.52,0.808 0.977,0.808l0.791,0c0.458,0 0.742,-0.354 0.63,-0.808l-0.63,-2.557l0.829,-0c0.91,-0 1.655,-1.111 1.655,-2.481l0,-2.487c0,-1.366 -0.742,-2.403 -1.655,-2.403c0,0 -2.351,-0.051 -2.483,0Zm0.226,-6.581c-0.738,0.104 -1.389,0.197 -1.926,0.276l-0.411,2.242c-0.158,0.86 -0.159,2.251 -0,3.116l0.414,2.258c0.537,0.08 1.189,0.176 1.93,0.282l-0.629,-2.553c-0.21,-0.853 -0.21,-2.238 -0,-3.09l0.622,-2.531Zm1.428,-9.165l-0.791,-0c-0.458,-0 -0.896,0.368 -0.977,0.808l-0.802,4.363c0.411,-0.06 0.866,-0.126 1.357,-0.196c0.718,0.257 2.042,-0.038 2.042,2.031c0,2.097 -1.411,1.711 -2.071,2.097c-0.092,0.054 -0.324,1.543 -0.412,1.577c0.132,0.051 2.483,0 2.483,0c0.913,0 1.655,-1.037 1.655,-2.402l0,-2.488c0,-1.37 -0.745,-2.48 -1.655,-2.48l-0.815,-0l0.616,-2.502c0.11,-0.447 -0.173,-0.808 -0.63,-0.808Zm26.385,-4.389c-5.43,-0.776 -14.24,-0.775 -19.664,0l-3.409,0.487l-0,1.42c-0,0.08 -0.004,0.16 -0.011,0.238l3.42,-0.49c2.504,-0.357 6.531,-0.476 6.531,-0.476c1.357,-0.059 2.474,1.012 2.474,2.387l-0,9.136c0.282,-0.024 0.56,-0.038 0.827,-0.038c0.257,0 0.535,0.009 0.827,0.024l0.001,-9.122c-0,-1.378 1.107,-2.443 2.473,-2.387c0,-0 4.029,0.119 6.531,0.476l3.421,0.49c-0.008,-0.078 -0.011,-0.158 -0.011,-0.238l-0,-1.42l-3.41,-0.487Zm8.789,-3.06c-0.686,0 -1.242,0.558 -1.242,1.242l0,1.655c0,0.645 0.489,1.175 1.122,1.236l0.12,0.005c0.685,0 1.241,-0.558 1.241,-1.241l0,-1.655c0,-0.686 -0.551,-1.242 -1.241,-1.242Zm-37.242,0c-0.685,0 -1.241,0.558 -1.241,1.242l0,1.655c0,0.645 0.488,1.175 1.121,1.236l0.12,0.005c0.686,0 1.242,-0.558 1.242,-1.241l-0,-1.655c-0,-0.686 -0.551,-1.242 -1.242,-1.242Z" style="fill:#fff;"/></svg>