<?xml version="1.0" encoding="UTF-8" standalone="no"?><!DOCTYPE svg PUBLIC "-//W3C//DTD SVG 1.1//EN" "http://www.w3.org/Graphics/SVG/1.1/DTD/svg11.dtd"><svg width="100%" height="100%" viewBox="0 0 58 58" version="1.1" xmlns="http://www.w3.org/2000/svg" xmlns:xlink="http://www.w3.org/1999/xlink" xml:space="preserve" xmlns:serif="http://www.serif.com/" style="fill-rule:evenodd;clip-rule:evenodd;stroke-linejoin:round;stroke-miterlimit:2;"><rect id="graph" x="0" y="-0" width="57.6" height="57.6" style="fill:none;"/><path d="M15.021,35.535c0,2.742 -2.223,4.965 -4.965,4.965c-2.743,0 -4.966,-2.223 -4.966,-4.965c0,-2.743 2.223,-4.966 4.966,-4.966c1.655,0 2.436,-4.916 3.762,-7.485c1.313,-2.543 4.334,-4.901 4.334,-4.901c0.695,-0.593 0.924,-1.731 0.557,-2.579c0,0 -0.377,-0.418 -0.377,-1.587c-0,-2.742 2.223,-4.965 4.965,-4.965c2.742,-0 4.966,2.223 4.966,4.965c-0,1.431 -0.714,2.212 -0.714,2.212c-0.475,0.781 -0.397,1.987 0.173,2.71c0,0 3.797,4.547 5.088,7.933c1.63,4.275 2.885,10.393 2.885,10.393c0.193,0.886 0.537,0.889 0.78,0.006c-0,0 1.098,-4.521 2.692,-7.281c1.386,-2.4 3.773,-4.423 3.773,-4.423c0.669,-0.62 0.887,-1.794 0.544,-2.637c0,0 -0.325,-0.346 -0.325,-1.464c0,-2.743 2.223,-4.966 4.966,-4.966c2.742,0 4.965,2.223 4.965,4.966c0,2.742 -2.223,4.965 -4.965,4.965c-0.417,0 -0,0 -0,0c-0.668,-0.081 -1.74,0.376 -2.384,1.027c0,-0 -2.788,2.654 -3.945,4.676c-1.752,3.065 -2.605,7.565 -2.605,7.565c-0.094,0.443 0.074,1.084 0.354,1.442c-0,0 1.131,1.128 1.131,2.67c0,2.742 -2.223,4.965 -4.965,4.965c-2.743,0 -4.966,-2.223 -4.966,-4.965c0,-1.234 1.459,-2.622 1.459,-2.622c0.311,-0.336 0.49,-0.971 0.398,-1.419c0,-0 -1.41,-7.189 -2.883,-11.216c-1.471,-4.022 -5.556,-8.943 -5.556,-8.943c-0.284,-0.354 -0.877,-0.67 -1.334,-0.707l0.141,0.012c-0.454,-0.037 -1.11,0.176 -1.457,0.475c0,0 -3.693,3.029 -4.843,5.274c-1.554,3.037 -2.466,5.898 -2.466,5.898c-0.299,0.861 -0.163,2.196 0.253,3.009c-0,-0 0.564,0.641 0.564,1.963Z" style="fill:#fff;"/></svg>