<?xml version="1.0" encoding="UTF-8" standalone="no"?><!DOCTYPE svg PUBLIC "-//W3C//DTD SVG 1.1//EN" "http://www.w3.org/Graphics/SVG/1.1/DTD/svg11.dtd"><svg width="100%" height="100%" viewBox="0 0 58 58" version="1.1" xmlns="http://www.w3.org/2000/svg" xmlns:xlink="http://www.w3.org/1999/xlink" xml:space="preserve" xmlns:serif="http://www.serif.com/" style="fill-rule:evenodd;clip-rule:evenodd;stroke-linejoin:round;stroke-miterlimit:2;"><rect id="house" x="0.051" y="0.207" width="57.6" height="57.6" style="fill:none;"/><path d="M23.48,18.96c0.486,-0.972 0.88,-2.656 0.88,-3.76l0,-4.345c0,-0.885 0,-0 0,-0c0,-1.466 1.193,-3.275 2.712,-3.955c0,0 -0.654,0.167 0.41,-0.137c2.716,-0.776 5.527,-0.382 8.002,1.398c-0,-0 5.948,3.695 10.451,8.938c4.171,4.854 6.129,10.1 6.129,10.1c0.804,1.718 0.276,3.767 -0.938,5.528c-3.73,3.137 -12.119,5.324 -21.871,5.324c-12.205,-0 -22.277,-3.426 -23.749,-7.854c-0.012,0.035 -0.023,0.08 -0.033,0.133c-0.275,-1.037 -0.226,-2.091 0.272,-3.058l2.014,-3.75c0.522,-0.971 1.666,-2.28 2.559,-2.927l0.572,-0.414c1.342,-0.971 2.438,-3.111 2.448,-4.76l0.039,-6.165c0.011,-2.207 1.804,-3.991 4.004,-3.991l0.711,0c2.195,0 4.268,1.732 4.268,3.935l0,9c0,0.12 0.01,2.38 0,2.5c0.513,-0.339 1.12,-1.74 1.12,-1.74Zm-10.181,24.202c-0,4.027 0.655,9.023 15.061,10.038l0,-6.5c0,-1.335 0.678,-2.505 2,-2.5l5,0c1.321,0.005 2,0.679 2,2l0,7c6.978,-2.046 7.054,-7.758 7.054,-11.235l0,-2.577c-4.128,1.268 -9.406,2.029 -15.159,2.029c-6.13,-0 -11.722,-0.864 -15.956,-2.286l-0,4.031Zm7.18,-34.706c0,-0.881 -1.328,-1.595 -2.64,-1.595c-1.313,-0 -2.641,0.714 -2.641,1.595c0,0.882 1.328,1.596 2.641,1.596c1.312,0 2.64,-0.714 2.64,-1.596Z" style="fill:#fff;"/></svg>