<?xml version="1.0" encoding="UTF-8" standalone="no"?><!DOCTYPE svg PUBLIC "-//W3C//DTD SVG 1.1//EN" "http://www.w3.org/Graphics/SVG/1.1/DTD/svg11.dtd"><svg width="100%" height="100%" viewBox="0 0 58 58" version="1.1" xmlns="http://www.w3.org/2000/svg" xmlns:xlink="http://www.w3.org/1999/xlink" xml:space="preserve" xmlns:serif="http://www.serif.com/" style="fill-rule:evenodd;clip-rule:evenodd;stroke-linejoin:round;stroke-miterlimit:2;"><rect id="mail_incoming" x="0.084" y="0.237" width="57.6" height="57.6" style="fill:none;"/><path d="M44.327,19.629c2.776,1.63 4.29,2.571 4.29,2.571c1.333,0.809 2.522,2.708 2.675,4.247c-0,0 0.671,6.12 0.671,10.205c0,4.218 -0.679,11.668 -0.679,11.668c-0.128,1.535 -1.481,2.957 -3.017,3.161l-7.209,0.958c-6.662,0.884 -17.446,0.887 -24.096,0.007l-7.228,-0.955c-1.533,-0.203 -2.891,-1.616 -3.025,-3.156c-0,0 -0.665,-6.915 -0.665,-11.683l0.001,-0.218c0.025,-3.748 0.681,-9.975 0.681,-9.975c0.146,-1.537 1.345,-3.447 2.669,-4.255c0,-0 1.364,-0.855 4.233,-2.536l1.437,2.902c-2.057,1.362 -3.886,2.69 -3.886,2.69c-0.839,0.598 -0.912,1.668 -0.171,2.371c-0,0 2.438,2.406 4.592,4.015c2.472,1.846 4.52,3.071 4.52,3.071c0.87,0.545 0.918,1.51 0.111,2.154c0,0 -2.412,1.902 -4.543,3.709c-2.64,2.239 -3.033,3.555 -3.033,3.555c-0.779,1.34 -0.316,1.814 1.014,1.022c-0,0 1.48,-0.682 3.609,-2.561c3.822,-3.371 9.078,-7.09 9.078,-7.09c1.665,-1.211 4.353,-1.182 5.992,0.065c0,0 6.467,4.838 10.063,7.987c1.986,1.74 3.165,1.944 3.165,1.944c1.43,0.585 1.921,-0.001 1.032,-1.262c0,-0 -0.267,-0.836 -2.505,-2.782c-2.415,-2.1 -5.423,-4.568 -5.423,-4.568c-0.792,-0.655 -0.728,-1.634 0.133,-2.19c0,-0 1.697,-1.027 3.989,-2.783c2.36,-1.808 4.783,-4.258 4.783,-4.258c0.74,-0.722 0.635,-1.756 -0.245,-2.314c-0,-0 -2.118,-1.355 -4.375,-2.748l1.362,-2.968Zm-14.83,-13.406l2.624,7.699c0.332,0.973 1.437,1.763 2.466,1.763l1.778,-0c1.03,-0 1.484,0.738 1.005,1.664l-0.009,0.017c-1.421,2.753 -4.224,6.877 -6.263,9.215l-1.277,1.464c-0.675,0.775 -1.773,0.773 -2.448,0l-1.289,-1.474c-2.039,-2.331 -4.837,-6.446 -6.256,-9.199l-0.018,-0.035c-0.475,-0.922 -0.016,-1.669 1.013,-1.669l1.098,0c1.034,0 2.18,-0.776 2.56,-1.734l3.074,-7.76c0.572,-1.442 1.439,-1.427 1.942,0.049Z" style="fill:#fff;"/></svg>