<?xml version="1.0" encoding="UTF-8" standalone="no"?><!DOCTYPE svg PUBLIC "-//W3C//DTD SVG 1.1//EN" "http://www.w3.org/Graphics/SVG/1.1/DTD/svg11.dtd"><svg width="100%" height="100%" viewBox="0 0 58 58" version="1.1" xmlns="http://www.w3.org/2000/svg" xmlns:xlink="http://www.w3.org/1999/xlink" xml:space="preserve" xmlns:serif="http://www.serif.com/" style="fill-rule:evenodd;clip-rule:evenodd;stroke-linejoin:round;stroke-miterlimit:2;"><rect id="map" x="0.158" y="0.018" width="57.6" height="57.6" style="fill:none;"/><path d="M48.408,11.362c-2.201,2.331 -6.563,4.491 -9.749,4.827l0.36,-0.038c-1.364,0.144 -3.341,-0.42 -4.427,-1.27l-2.121,-1.656c-1.802,-1.409 -5.02,-3.142 -7.185,-3.871l-1.299,-0.437c-1.301,-0.438 -3.418,-0.445 -4.717,-0.018l-1.001,0.329c-2.176,0.715 -5.408,2.429 -7.214,3.826l-2.381,1.841c-1.083,0.837 -2.122,2.618 -2.32,3.969l-0.688,4.703c-0.795,5.431 -0.763,14.229 0.073,19.666l0.596,3.875c0.209,1.356 1.252,1.776 2.346,0.926l2.248,-1.747c1.808,-1.404 5.035,-3.128 7.206,-3.85l1.136,-0.377c1.303,-0.434 3.422,-0.433 4.726,0.001l1.113,0.369c2.173,0.721 5.4,2.444 7.205,3.845l2.272,1.765c1.084,0.841 3.063,1.329 4.408,1.091l1.429,-0.252c3.159,-0.558 7.353,-3.032 9.359,-5.517l0.123,-0.153c0.862,-1.068 1.723,-3.036 1.922,-4.394l0.685,-4.68c0.796,-5.435 0.765,-14.239 -0.07,-19.667l-0.598,-3.889c-0.208,-1.356 -1.145,-1.643 -2.083,-0.65l-1.354,1.433Zm-1.837,5.175c1.076,-0.848 2.144,-0.443 2.38,0.909l0.023,0.134c0.945,5.42 0.937,14.19 -0.016,19.599l-0.002,0.015c-0.21,1.193 -0.931,2.865 -1.692,3.978l-0.044,0.061l0.164,-0.183l0.14,-0.167l-0.565,0.702l0.153,-0.198l0.105,-0.149c-1.93,2.086 -5.38,3.538 -8.261,3.505c0.103,-0.169 0.168,-0.359 0.185,-0.56c-0,0 0.723,-8.168 0.723,-12.249c0,-4.346 -0.716,-11.801 -0.716,-11.801l-0.009,-0.064c2.784,-0.831 5.91,-2.332 7.825,-3.842l-0.393,0.31Zm-23.487,-3.609c0.694,0.072 1.358,0.2 1.885,0.378l0.301,0.101c2.159,0.728 5.367,2.484 7.149,3.918l2.197,1.767c0.335,0.27 0.761,0.508 1.23,0.703c-0.021,0.108 -0.027,0.222 -0.017,0.338c-0,0 0.72,7.87 0.72,11.801c0,4.388 -0.686,11.889 -0.719,12.244c-0.959,-0.325 -1.925,-0.769 -2.59,-1.218l-0.751,-0.508c-1.908,-1.291 -5.123,-3.103 -7.202,-4.06l-0.423,-0.195c-0.467,-0.216 -1.055,-0.384 -1.677,-0.496c0.002,-0.048 0.001,-0.098 -0.003,-0.148c-0,-0 -0.701,-7.903 -0.724,-12.045l-0,-0.205c-0,-4.345 0.716,-11.801 0.716,-11.801c0.017,-0.189 -0.01,-0.369 -0.072,-0.529l-0.02,-0.045Zm-3.219,0.575c0,0 -0.697,7.61 -0.72,11.601l-0,0.199c-0,4.496 0.72,12.258 0.72,12.258c0.005,0.054 0.013,0.106 0.024,0.158c-2.239,0.52 -5.38,1.829 -7.209,3.016l-0.939,0.61c-0.994,0.646 -2,0.375 -2.447,-0.572l-0.012,-0.028l-0.049,-0.306c-0.806,-5.167 -0.943,-12.184 -0.286,-16.953l0.073,-0.502l0.255,-1.646c0.212,-1.364 1.262,-3.137 2.348,-3.978l1.37,-1.058c1.72,-1.331 4.778,-2.748 7.007,-3.267c-0.074,0.145 -0.121,0.303 -0.135,0.468Z" style="fill:#fff;"/></svg>