<?xml version="1.0" encoding="UTF-8" standalone="no"?><!DOCTYPE svg PUBLIC "-//W3C//DTD SVG 1.1//EN" "http://www.w3.org/Graphics/SVG/1.1/DTD/svg11.dtd"><svg width="100%" height="100%" viewBox="0 0 58 58" version="1.1" xmlns="http://www.w3.org/2000/svg" xmlns:xlink="http://www.w3.org/1999/xlink" xml:space="preserve" xmlns:serif="http://www.serif.com/" style="fill-rule:evenodd;clip-rule:evenodd;stroke-linejoin:round;stroke-miterlimit:2;"><rect id="marker_remove" x="0.16" y="0.12" width="57.6" height="57.6" style="fill:none;"/><path d="M29.16,7.96c8.837,0 16,7.163 16,16c0,13 -12,26 -16,26c-4,0 -16,-13 -16,-26c0,-8.837 7.163,-16 16,-16Zm0,4c-6.627,0 -12,5.373 -12,12c0,6.627 5.373,12 12,12c6.627,0 12,-5.373 12,-12c0,-6.627 -5.373,-12 -12,-12Zm0,9c4,0 8,0.5 8,3c0,2.5 -4,3 -8,3l-0.261,-0.001c-3.911,-0.022 -7.739,-0.553 -7.739,-2.999c0,-2.5 4,-3 8,-3Z" style="fill:#fff;"/></svg>