<?xml version="1.0" encoding="UTF-8" standalone="no"?><!DOCTYPE svg PUBLIC "-//W3C//DTD SVG 1.1//EN" "http://www.w3.org/Graphics/SVG/1.1/DTD/svg11.dtd"><svg width="100%" height="100%" viewBox="0 0 58 58" version="1.1" xmlns="http://www.w3.org/2000/svg" xmlns:xlink="http://www.w3.org/1999/xlink" xml:space="preserve" xmlns:serif="http://www.serif.com/" style="fill-rule:evenodd;clip-rule:evenodd;stroke-linejoin:round;stroke-miterlimit:2;"><rect id="molecule" x="0.18" y="0.12" width="57.6" height="57.6" style="fill:none;"/><path d="M32.9,38.417l2.273,5.06c0.084,-0.005 0.168,-0.007 0.253,-0.007c2.325,-0 4.21,1.885 4.21,4.21c0,2.326 -1.885,4.211 -4.21,4.211c-2.325,-0 -4.211,-1.885 -4.211,-4.211c0,-1.336 0.623,-2.527 1.594,-3.299l-2.226,-4.957l2.317,-1.007Zm-12.014,-3.73c0.568,-0.542 1.424,-0.619 2.075,-0.239l0.002,0.002c0.356,0.601 0.296,1.37 -0.18,1.909l-0.101,0.104l-6.236,5.947c0.409,0.806 0.562,1.749 0.376,2.705c-0.443,2.283 -2.654,3.774 -4.936,3.33c-2.283,-0.444 -3.774,-2.654 -3.33,-4.937c0.444,-2.282 2.654,-3.773 4.936,-3.329c0.427,0.083 0.826,0.227 1.19,0.423l6.204,-5.915Zm13.36,-3.469c0.366,-0.614 1.104,-0.925 1.834,-0.71l9.497,2.796c0.771,-0.988 1.973,-1.624 3.323,-1.624c2.325,0 4.21,1.885 4.21,4.211c0,2.325 -1.885,4.21 -4.21,4.21c-2.326,0 -4.211,-1.885 -4.211,-4.21c0,-0.073 0.002,-0.145 0.006,-0.217l-9.219,-2.713c-0.723,-0.213 -1.216,-0.873 -1.259,-1.596l-0.003,-0.09l0.032,-0.057Zm-7.1,-9.642c4.325,0.071 7.856,3.402 8.245,7.643c-1.602,-0.336 -3.136,0.405 -3.487,1.717c-0.367,1.369 0.692,2.843 2.367,3.291l0.014,0.004c-1.459,2.504 -4.173,4.186 -7.28,4.186c-1.312,0 -2.553,-0.3 -3.66,-0.834c0.123,-0.143 0.251,-0.287 0.39,-0.426c1.226,-1.225 1.407,-3.032 0.405,-4.034c-1.003,-1.002 -2.809,-0.822 -4.035,0.404c-0.168,0.169 -0.343,0.322 -0.513,0.467c-0.643,-1.19 -1.008,-2.551 -1.008,-3.998c-0,-2.832 1.398,-5.337 3.541,-6.864c0.164,0.292 0.351,0.601 0.509,0.941c0.733,1.571 2.368,2.359 3.653,1.759c1.285,-0.599 1.733,-2.358 1,-3.929c-0.046,-0.098 -0.088,-0.196 -0.128,-0.294l-0.013,-0.033Zm-17.825,-2.527c2.325,-0 4.21,1.885 4.21,4.21c0,0.094 -0.003,0.187 -0.009,0.28l3.802,1.478l-0.849,2.379l-3.868,-1.504c-0.772,0.962 -1.957,1.578 -3.286,1.578c-2.326,-0 -4.211,-1.885 -4.211,-4.211c0,-2.325 1.885,-4.21 4.211,-4.21Zm32,-5.895c2.325,-0 4.21,1.885 4.21,4.21c0,2.326 -1.885,4.211 -4.21,4.211c-0.842,0 -1.626,-0.247 -2.284,-0.672l-3.16,2.849l-1.744,-1.828l3.289,-2.967c-0.201,-0.491 -0.312,-1.029 -0.312,-1.593c0,-2.325 1.885,-4.21 4.211,-4.21Zm-21.053,-6.737c2.325,0 4.211,1.885 4.211,4.211c-0,1.379 -0.664,2.604 -1.69,3.372l2.993,7.588c0.279,0.707 0.053,1.481 -0.501,1.936l-0.071,0.053l-0.089,0.011c-0.669,0.051 -1.324,-0.307 -1.629,-0.934l-0.053,-0.12l-3.035,-7.699l-0.136,0.003c-2.264,0 -4.111,-1.787 -4.207,-4.028l-0.003,-0.182c-0,-2.326 1.885,-4.211 4.21,-4.211Z" style="fill:#fff;"/></svg>