<?xml version="1.0" encoding="UTF-8" standalone="no"?><!DOCTYPE svg PUBLIC "-//W3C//DTD SVG 1.1//EN" "http://www.w3.org/Graphics/SVG/1.1/DTD/svg11.dtd"><svg width="100%" height="100%" viewBox="0 0 58 58" version="1.1" xmlns="http://www.w3.org/2000/svg" xmlns:xlink="http://www.w3.org/1999/xlink" xml:space="preserve" xmlns:serif="http://www.serif.com/" style="fill-rule:evenodd;clip-rule:evenodd;stroke-linejoin:round;stroke-miterlimit:2;"><rect id="palette" x="0.177" y="0.007" width="57.6" height="57.6" style="fill:none;"/><path d="M31.574,15.928l-0.174,0.141c-2.345,1.909 -4.031,3.402 -4.031,3.402c-0.311,0.269 -0.554,0.603 -0.726,0.971c-0.096,0.155 -0.172,0.313 -0.219,0.458l-1.273,3.941c-0.591,1.83 -2.312,4.264 -3.844,5.437l-1.726,1.32c-1.652,-0.659 -3.419,-0.405 -4.417,0.785c-1.32,1.573 -0.796,4.185 1.171,5.835c1.966,1.65 4.63,1.713 5.95,0.14c0.68,-0.81 0.87,-1.896 0.627,-2.984c1.465,0.389 3.015,0.719 3.784,0.625c-0,-0 4.177,0.31 7.408,-0.872c2.582,-0.944 3.757,-2.549 4.125,-3.155c0.126,-0.126 0.259,-0.257 0.396,-0.393c0.289,-0.187 0.501,-0.402 0.634,-0.631c1.507,-1.508 3.381,-3.428 5.021,-5.242c5.066,6.399 6.667,13.842 3.433,19.444c-4.813,8.337 -18.515,9.438 -30.604,2.458c-4.333,-2.501 -8.172,-6.686 -9.143,-10.31c-1.276,-4.762 2.093,-8.855 1.455,-11.236c-1.276,-4.763 -6.038,-3.487 -3.521,-8.742c2.292,-4.786 15.278,-5.907 25.674,-1.392Zm-2.238,7.865l0.198,0.306c0.578,0.897 1.431,1.976 2.397,2.942c0.966,0.966 2.045,1.819 2.942,2.398l0.307,0.198c0.783,0.505 0.723,1.271 -0.129,1.708l-1.129,0.579c-1.221,0.627 -3.306,1.269 -4.652,1.433l-2.209,0.271c-1.08,0.132 -3.083,-0.481 -3.083,-0.481c-1.341,-0.338 -1.459,-1.104 -0.297,-1.739l0.12,-0.063l-0.223,0.112c1.722,-0.861 3.358,-3.098 3.654,-5l0.262,-1.678c0.073,-0.473 0.468,-1.067 0.902,-1.249c-0,0 0.435,-0.52 0.94,0.263Zm20.732,-17.381c2.732,-1.476 3.882,-0.391 2.561,2.408c-0,0 -2.8,6.421 -6.323,11.491c-1.935,2.784 -7.212,7.4 -7.212,7.4c-0.439,0.399 -0.981,0.622 -1.537,0.673c-1.293,-0.887 -2.764,-2.084 -4.098,-3.418c-0.979,-0.98 -1.885,-2.033 -2.648,-3.036c-0.089,-0.785 0.147,-1.604 0.711,-2.205c0,-0 3.958,-4.406 7.376,-6.822c3.583,-2.533 11.17,-6.491 11.17,-6.491Zm-5.56,5.184c-7.844,4.793 -12.201,9.587 -10.458,10.458c0.871,1.743 12.201,-9.587 10.458,-10.458Z" style="fill:#fff;"/></svg>