<?xml version="1.0" encoding="UTF-8" standalone="no"?><!DOCTYPE svg PUBLIC "-//W3C//DTD SVG 1.1//EN" "http://www.w3.org/Graphics/SVG/1.1/DTD/svg11.dtd"><svg width="100%" height="100%" viewBox="0 0 58 58" version="1.1" xmlns="http://www.w3.org/2000/svg" xmlns:xlink="http://www.w3.org/1999/xlink" xml:space="preserve" xmlns:serif="http://www.serif.com/" style="fill-rule:evenodd;clip-rule:evenodd;stroke-linejoin:round;stroke-miterlimit:2;"><rect id="phone" x="0.045" y="0.235" width="57.6" height="57.6" style="fill:none;"/><path d="M17.97,5.569c6.375,-0.682 16.221,-0.659 22.367,0.069c1.367,0.162 2.538,1.399 2.633,2.766l0.347,5.004c0.569,8.189 0.601,21.483 0.071,29.68l-0.43,6.655c-0.088,1.367 -1.262,2.606 -2.621,2.767l-0.606,0.069c-6.376,0.682 -16.222,0.659 -22.367,-0.069l-0.151,-0.022c-1.301,-0.232 -2.385,-1.425 -2.469,-2.737l-0.438,-6.804c-0.526,-8.189 -0.489,-21.485 0.083,-29.68l0.34,-4.858c0.096,-1.38 1.275,-2.61 2.635,-2.771l0.606,-0.069Zm10.88,38.383c-1.826,0 -3.306,1.481 -3.306,3.307c-0,1.826 1.48,3.306 3.306,3.306c1.826,0 3.306,-1.48 3.306,-3.306c0,-1.826 -1.48,-3.307 -3.306,-3.307Zm0.819,1.654c0.468,-0 0.834,0.373 0.834,0.834l0,1.638c0,0.468 -0.373,0.834 -0.834,0.834l-1.638,-0c-0.467,-0 -0.834,-0.374 -0.834,-0.834l0,-1.638c0,-0.468 0.374,-0.834 0.834,-0.834l1.638,-0Zm0.008,0.826l-1.653,0l-0,1.653l1.653,0l-0,-1.653Zm0.263,-38.022l-0.677,-0.001c-7.167,0 -9.622,0.286 -9.622,0.286c-0.905,0.07 -1.695,0.859 -1.761,1.776c-0,-0 -0.635,7.829 -0.653,15.386l-0,0.324c-0,7.655 0.638,14.478 0.638,14.478c0.076,0.906 0.865,1.529 1.773,1.391l0.229,-0.035c4.961,-0.756 13.007,-0.756 17.967,-0l0.229,0.035c0.903,0.138 1.682,-0.49 1.738,-1.405c-0,0 0.653,-10.2 0.672,-14.681l0,-0.196c0,-5.686 -0.666,-15.294 -0.666,-15.294c-0.06,-0.911 -0.844,-1.726 -1.753,-1.799c0,-0 -1.52,-0.249 -8.114,-0.265Z" style="fill:#fff;"/></svg>