<?xml version="1.0" encoding="UTF-8" standalone="no"?><!DOCTYPE svg PUBLIC "-//W3C//DTD SVG 1.1//EN" "http://www.w3.org/Graphics/SVG/1.1/DTD/svg11.dtd"><svg width="100%" height="100%" viewBox="0 0 58 58" version="1.1" xmlns="http://www.w3.org/2000/svg" xmlns:xlink="http://www.w3.org/1999/xlink" xml:space="preserve" xmlns:serif="http://www.serif.com/" style="fill-rule:evenodd;clip-rule:evenodd;stroke-linejoin:round;stroke-miterlimit:2;"><rect id="signal_low" x="-0" y="0.233" width="57.6" height="57.6" style="fill:none;"/><path d="M14.859,29.392c1.493,-0.223 2.691,0.811 2.691,2.309l0,7.275c0,4.501 0.417,6.347 0.417,6.347c0.251,1.99 -1.123,3.382 -3.112,3.129c-0,-0 -1.789,-0.221 -4.055,-0.535l-2.375,-0.329c-1.422,-0.197 -2.869,-1.522 -3.198,-2.955c-0,0 -0.355,-3.771 -0.355,-5.657l0.001,-0.168c0.018,-1.835 0.315,-5.126 0.35,-5.506l0.004,-0.037c0.327,-1.425 1.761,-2.755 3.198,-2.954l2.375,-0.329c2.109,-0.293 3.809,-0.552 4.034,-0.586l0.025,-0.004Z" style="fill:#fff;"/></svg>