<?xml version="1.0" encoding="UTF-8" standalone="no"?><!DOCTYPE svg PUBLIC "-//W3C//DTD SVG 1.1//EN" "http://www.w3.org/Graphics/SVG/1.1/DTD/svg11.dtd"><svg width="100%" height="100%" viewBox="0 0 58 58" version="1.1" xmlns="http://www.w3.org/2000/svg" xmlns:xlink="http://www.w3.org/1999/xlink" xml:space="preserve" xmlns:serif="http://www.serif.com/" style="fill-rule:evenodd;clip-rule:evenodd;stroke-linejoin:round;stroke-miterlimit:2;"><rect id="stop" x="0.165" y="0.165" width="57.6" height="57.6" style="fill:none;"/><path d="M37.924,12.841c-4.879,-0.976 -12.795,-0.975 -17.668,-0l-2.244,0.449c-2.166,0.433 -4.272,2.534 -4.706,4.705l-0.449,2.245c-0.976,4.879 -0.975,12.795 -0,17.668l0.449,2.245c0.433,2.165 2.534,4.271 4.706,4.705l2.244,0.449c4.879,0.976 12.795,0.975 17.668,-0l2.245,-0.449c2.165,-0.433 4.271,-2.534 4.705,-4.705l0.449,-2.245c0.976,-4.879 0.975,-12.795 0,-17.668l-0.449,-2.245c-0.433,-2.165 -2.534,-4.271 -4.705,-4.705l-2.245,-0.449Z" style="fill:#fff;"/></svg>