<?xml version="1.0" encoding="UTF-8" standalone="no"?><!DOCTYPE svg PUBLIC "-//W3C//DTD SVG 1.1//EN" "http://www.w3.org/Graphics/SVG/1.1/DTD/svg11.dtd"><svg width="100%" height="100%" viewBox="0 0 57 58" version="1.1" xmlns="http://www.w3.org/2000/svg" xmlns:xlink="http://www.w3.org/1999/xlink" xml:space="preserve" xmlns:serif="http://www.serif.com/" style="fill-rule:evenodd;clip-rule:evenodd;stroke-linejoin:round;stroke-miterlimit:2;"><rect id="volume_high" x="0.096" y="0.068" width="56.609" height="57.6" style="fill:none;"/><path d="M24.768,12.286l0.659,5.857c0.672,5.976 0.677,15.658 0.007,21.651l-0.666,5.97c-0,2.592 -1.522,3.239 -3.4,1.452l-7.286,-6.935c-1.123,-1.07 -3.287,-1.936 -4.845,-1.936l-0.407,-0c-2.595,-0 -4.7,-2.098 -4.7,-4.686l0,-9.39c0,-2.588 2.104,-4.686 4.7,-4.686l0.537,0c1.552,0 3.724,-0.871 4.849,-1.941l7.152,-6.808c1.875,-1.785 3.4,-1.137 3.4,1.452Zm10.318,-1.145c9.844,-0 17.824,7.98 17.824,17.823c-0,9.844 -7.98,17.823 -17.824,17.823c-2.069,0 -4.056,-0.352 -5.904,-1.001c0.525,-0.663 1.082,-1.48 1.632,-2.43c1.354,0.402 2.788,0.617 4.272,0.617c8.29,0 15.01,-6.72 15.01,-15.009c-0,-8.289 -6.72,-15.009 -15.01,-15.009c-1.484,-0 -2.918,0.215 -4.272,0.617c-0.55,-0.949 -1.107,-1.767 -1.632,-2.43c1.848,-0.649 3.835,-1.001 5.904,-1.001Zm-7.504,3.752c1.036,0 4.69,6.3 4.69,14.071c0,7.771 -3.654,14.071 -4.69,14.071c-0,0 0.938,-7.035 0.938,-14.071c0,-7.035 -0.938,-14.071 -0.938,-14.071Zm7.504,1.876c6.736,0 12.195,5.46 12.195,12.195c0,6.735 -5.459,12.195 -12.195,12.195c-1.022,-0 -2.014,-0.126 -2.963,-0.363c0.372,-0.827 0.724,-1.713 1.042,-2.648c0.62,0.129 1.263,0.197 1.921,0.197c5.181,-0 9.381,-4.2 9.381,-9.381c0,-5.181 -4.2,-9.381 -9.381,-9.381c-0.658,0 -1.301,0.068 -1.921,0.197c-0.318,-0.935 -0.67,-1.821 -1.042,-2.648c0.949,-0.237 1.941,-0.363 2.963,-0.363Zm0,5.629c3.627,-0 6.567,2.94 6.567,6.566c-0,3.627 -2.94,6.567 -6.567,6.567c-0.387,-0 -0.767,-0.034 -1.137,-0.099c0.213,-0.892 0.39,-1.816 0.521,-2.766c0.2,0.033 0.406,0.05 0.616,0.05c2.073,0 3.753,-1.68 3.753,-3.752c-0,-2.072 -1.68,-3.752 -3.753,-3.752c-0.21,-0 -0.416,0.017 -0.616,0.05c-0.131,-0.95 -0.308,-1.874 -0.521,-2.766c0.37,-0.065 0.75,-0.098 1.137,-0.098Z" style="fill:#fff;"/></svg>