<?xml version="1.0" encoding="UTF-8" standalone="no"?><!DOCTYPE svg PUBLIC "-//W3C//DTD SVG 1.1//EN" "http://www.w3.org/Graphics/SVG/1.1/DTD/svg11.dtd"><svg width="100%" height="100%" viewBox="0 0 58 58" version="1.1" xmlns="http://www.w3.org/2000/svg" xmlns:xlink="http://www.w3.org/1999/xlink" xml:space="preserve" xmlns:serif="http://www.serif.com/" style="fill-rule:evenodd;clip-rule:evenodd;stroke-linejoin:round;stroke-miterlimit:2;"><rect id="volume_off" x="0.163" y="0.068" width="57.6" height="57.6" style="fill:none;"/><path d="M26.153,12.286l0.659,5.857c0.673,5.976 0.677,15.658 0.008,21.651l-0.667,5.97c0,2.592 -1.522,3.239 -3.4,1.452l-7.285,-6.935c-1.124,-1.07 -3.288,-1.936 -4.845,-1.936l-0.408,-0c-2.595,-0 -4.699,-2.098 -4.699,-4.686l-0,-9.39c-0,-2.588 2.104,-4.686 4.699,-4.686l0.538,0c1.551,0 3.724,-0.871 4.849,-1.941l7.151,-6.808c1.876,-1.785 3.4,-1.137 3.4,1.452Zm2.815,2.607c1.036,0 4.69,6.3 4.69,14.071c-0,7.771 -3.654,14.071 -4.69,14.071c-0,0 0.938,-7.035 0.938,-14.071c-0,-7.035 -0.938,-14.071 -0.938,-14.071Zm9.84,8.031c0.922,-0.923 2.398,-0.918 3.312,-0.005l2.603,2.604c0.36,0.359 0.957,0.365 1.321,-0l2.604,-2.604c0.906,-0.906 2.396,-0.911 3.312,0.005c0.922,0.922 0.918,2.398 0.004,3.312l-2.534,2.535c-0.368,0.367 -0.366,0.959 -0,1.325l2.534,2.534c0.907,0.907 0.912,2.397 -0.004,3.313c-0.922,0.922 -2.399,0.917 -3.312,0.004l-2.604,-2.604c-0.359,-0.359 -0.956,-0.364 -1.321,0l-2.603,2.604c-0.906,0.906 -2.397,0.912 -3.312,-0.004c-0.923,-0.923 -0.918,-2.399 -0.005,-3.313l2.535,-2.534c0.368,-0.368 0.366,-0.959 0,-1.325l-2.535,-2.535c-0.906,-0.906 -0.911,-2.397 0.005,-3.312Z" style="fill:#fff;"/></svg>