<?xml version="1.0" encoding="UTF-8" standalone="no"?><!DOCTYPE svg PUBLIC "-//W3C//DTD SVG 1.1//EN" "http://www.w3.org/Graphics/SVG/1.1/DTD/svg11.dtd"><svg width="100%" height="100%" viewBox="0 0 58 58" version="1.1" xmlns="http://www.w3.org/2000/svg" xmlns:xlink="http://www.w3.org/1999/xlink" xml:space="preserve" xmlns:serif="http://www.serif.com/" style="fill-rule:evenodd;clip-rule:evenodd;stroke-linejoin:round;stroke-miterlimit:2;"><rect id="volume_down" x="0.055" y="0.068" width="57.6" height="57.6" style="fill:none;"/><path d="M24.796,12.286l0.659,5.857c0.672,5.976 0.677,15.658 0.008,21.651l-0.667,5.97c-0,2.592 -1.522,3.239 -3.4,1.452l-7.286,-6.935c-1.123,-1.07 -3.287,-1.936 -4.845,-1.936l-0.407,-0c-2.595,-0 -4.7,-2.098 -4.7,-4.686l0,-9.39c0,-2.588 2.104,-4.686 4.7,-4.686l0.537,0c1.552,0 3.724,-0.871 4.849,-1.941l7.152,-6.808c1.875,-1.785 3.4,-1.137 3.4,1.452Zm2.814,2.607c1.036,0 4.69,6.3 4.69,14.071c0,7.771 -3.654,14.071 -4.69,14.071c0,0 0.938,-7.035 0.938,-14.071c0,-7.035 -0.938,-14.071 -0.938,-14.071Zm18.621,3.703l3.073,10.407l3.283,0c1.037,0 1.495,0.741 1.014,1.674l-1.068,2.067c-0.714,1.383 -2.124,3.457 -3.144,4.626l-2.718,3.117c-0.679,0.779 -1.787,0.773 -2.462,0l-2.725,-3.117c-1.025,-1.172 -2.433,-3.241 -3.145,-4.623l-1.08,-2.098c-0.473,-0.917 -0.024,-1.661 1.015,-1.661l2.666,0l3.579,-10.427c0.505,-1.472 1.272,-1.456 1.712,0.035Z" style="fill:#fff;"/></svg>