<?xml version="1.0" encoding="UTF-8" standalone="no"?><!DOCTYPE svg PUBLIC "-//W3C//DTD SVG 1.1//EN" "http://www.w3.org/Graphics/SVG/1.1/DTD/svg11.dtd"><svg width="100%" height="100%" viewBox="0 0 58 58" version="1.1" xmlns="http://www.w3.org/2000/svg" xmlns:xlink="http://www.w3.org/1999/xlink" xml:space="preserve" xmlns:serif="http://www.serif.com/" style="fill-rule:evenodd;clip-rule:evenodd;stroke-linejoin:round;stroke-miterlimit:2;"><rect id="windows" x="0.2" y="0.175" width="57.6" height="57.6" style="fill:none;"/><path d="M17.046,5.546c6.595,-0.761 17.284,-0.76 23.878,0l5.252,0.606c2.836,0.328 5.383,2.883 5.709,5.709l0.606,5.253c0.101,0.874 0.189,1.82 0.263,2.818c-0.104,-0.021 -0.208,-0.038 -0.313,-0.048c-0,-0 -1.241,-0.125 -2.334,-0.234c-0.951,-0.096 -1.719,-0.819 -1.872,-1.763c0,-0 0,-0 0,-0c-0.277,-0.82 -1.092,-1.516 -1.939,-1.614l-2.185,-0.252c-8.472,-0.977 -22.203,-0.978 -30.681,0l-2.186,0.252c-0.848,0.098 -1.662,0.791 -1.939,1.613l-0.026,0.085l-0.043,0.277c-1.004,6.573 -1.255,16.334 -0.541,22.525l0.548,4.744c0.163,1.411 1.44,2.686 2.848,2.849c0,-0 0.641,0.088 1.355,0.186c1.202,0.164 2.18,1.049 2.465,2.228c-0.548,-1.966 -0.278,-0.997 -0.017,-0.056c0.097,0.399 -0.008,0.821 -0.28,1.129c-0.272,0.307 -0.677,0.463 -1.085,0.416c-1.273,-0.147 -2.736,-0.315 -2.736,-0.315c-2.835,-0.328 -5.383,-2.883 -5.709,-5.709l-0.606,-5.253c-0.761,-6.595 -0.761,-17.284 0,-23.878l0.606,-5.253c0.327,-2.835 2.882,-5.382 5.709,-5.709l5.253,-0.606Zm-5.223,3.771c-0.948,0 -1.716,0.769 -1.716,1.716c0,0.948 0.768,1.717 1.716,1.717c0.948,-0 1.716,-0.769 1.716,-1.717c0,-0.947 -0.768,-1.716 -1.716,-1.716Zm3.862,-0.858c-0.711,0 -1.288,0.576 -1.288,1.287c0,0.711 0.577,1.287 1.288,1.287c0.71,0 1.287,-0.576 1.287,-1.287c-0,-0.711 -0.577,-1.287 -1.287,-1.287Zm3.861,0c-0.474,0 -0.858,0.384 -0.858,0.858c-0,0.474 0.384,0.858 0.858,0.858c0.474,0 0.858,-0.384 0.858,-0.858c0,-0.474 -0.384,-0.858 -0.858,-0.858Z" style="fill:#fff;"/><path d="M22.311,20.22c6.592,-0.693 17.289,-0.693 23.885,0l2.593,0.273c1.411,0.148 2.704,1.413 2.882,2.824l0.139,1.097c0.834,6.585 0.834,17.263 0,23.848l-0.139,1.097c-0.178,1.41 -1.469,2.676 -2.882,2.824l-2.593,0.273c-6.592,0.693 -17.289,0.693 -23.885,-0l-2.593,-0.273c-1.411,-0.148 -2.704,-1.413 -2.883,-2.824l-0.139,-1.097c-0.834,-6.585 -0.834,-17.263 0,-23.848l0.139,-1.097c0.179,-1.41 1.47,-2.676 2.883,-2.824l2.593,-0.273Zm0.953,7.439l-3.061,0.297c-0.4,0.039 -0.793,0.342 -0.963,0.709l-0.029,0.069l-0.003,0.021c-0.818,4.601 -0.865,12.552 -0.078,18.288l0.102,0.746c0.064,0.465 0.499,0.879 0.971,0.924l4.653,0.452c5.19,0.503 13.609,0.503 18.795,-0l4.653,-0.452c0.472,-0.045 0.908,-0.471 0.971,-0.924l0.102,-0.746c0.767,-5.588 0.517,-14.335 -0.068,-18.168l-0.028,-0.176l-0.014,-0.035c-0.171,-0.37 -0.564,-0.669 -0.963,-0.708l-3.061,-0.297c-6.069,-0.589 -15.911,-0.588 -21.979,0Zm-1.882,-4.715c-0.711,-0 -1.287,0.576 -1.287,1.287c0,0.71 0.576,1.287 1.287,1.287c0.711,-0 1.287,-0.577 1.287,-1.287c0,-0.711 -0.576,-1.287 -1.287,-1.287Zm3.003,-0c-0.473,-0 -0.858,0.384 -0.858,0.858c0,0.473 0.385,0.858 0.858,0.858c0.474,-0 0.859,-0.385 0.859,-0.858c-0,-0.474 -0.385,-0.858 -0.859,-0.858Zm2.575,-0c-0.474,-0 -0.858,0.384 -0.858,0.858c-0,0.473 0.384,0.858 0.858,0.858c0.474,-0 0.858,-0.385 0.858,-0.858c-0,-0.474 -0.384,-0.858 -0.858,-0.858Z" style="fill:#fff;"/></svg>